<svg width="22" height="23" viewBox="0 0 22 23" fill="none" xmlns="http://www.w3.org/2000/svg">
<path d="M8.61885 11.2549L16.2035 18.6808C16.56 19.0299 16.7383 19.4742 16.7383 20.0137C16.7383 20.5532 16.56 20.9974 16.2035 21.3465C15.8469 21.6956 15.3932 21.8702 14.8421 21.8702C14.2911 21.8702 13.8373 21.6956 13.4808 21.3465L4.53481 12.5878C4.34034 12.3973 4.2029 12.1911 4.12252 11.9689C4.04214 11.7468 4.0013 11.5088 4 11.2549C4 11.001 4.04084 10.763 4.12252 10.5409C4.2042 10.3187 4.34163 10.1125 4.53481 9.92204L13.4808 1.16327C13.8373 0.814188 14.2911 0.639648 14.8421 0.639648C15.3932 0.639648 15.8469 0.814188 16.2035 1.16327C16.56 1.51235 16.7383 1.95664 16.7383 2.49613C16.7383 3.03562 16.56 3.4799 16.2035 3.82898L8.61885 11.2549Z" fill="#62D0DF"/>
</svg>
