<svg width="22" height="22" viewBox="0 0 22 22" fill="none" xmlns="http://www.w3.org/2000/svg">
<path d="M13.3812 11L5.79652 3.57407C5.43997 3.22499 5.2617 2.7807 5.2617 2.24121C5.2617 1.70172 5.43997 1.25744 5.79652 0.908356C6.15306 0.559274 6.60684 0.384731 7.15786 0.384731C7.70888 0.384731 8.16266 0.559274 8.51921 0.908356L17.4652 9.66713C17.6597 9.85754 17.7971 10.0638 17.8775 10.286C17.9579 10.5081 17.9987 10.7461 18 11C18 11.2539 17.9592 11.4919 17.8775 11.714C17.7958 11.9362 17.6584 12.1424 17.4652 12.3328L8.5192 21.0916C8.16266 21.4407 7.70888 21.6152 7.15786 21.6152C6.60684 21.6152 6.15306 21.4407 5.79651 21.0916C5.43997 20.7425 5.2617 20.2982 5.2617 19.7588C5.2617 19.2193 5.43997 18.775 5.79651 18.4259L13.3812 11Z" fill="#62D0DF"/>
</svg>
