<svg width="40" height="40" viewBox="0 0 40 40" fill="none" xmlns="http://www.w3.org/2000/svg">
<path d="M22.8855 20L10.3817 32.2421C9.7939 32.8176 9.5 33.5501 9.5 34.4395C9.5 35.3288 9.7939 36.0613 10.3817 36.6368C10.9695 37.2123 11.7176 37.5 12.626 37.5C13.5344 37.5 14.2824 37.2123 14.8702 36.6368L29.6183 22.1973C29.9389 21.8834 30.1655 21.5433 30.298 21.1771C30.4305 20.8109 30.4979 20.4185 30.5 20C30.5 19.5815 30.4327 19.1891 30.298 18.8229C30.1634 18.4567 29.9368 18.1166 29.6183 17.8027L14.8702 3.36323C14.2824 2.78774 13.5344 2.5 12.626 2.5C11.7176 2.5 10.9695 2.78774 10.3817 3.36323C9.7939 3.93871 9.5 4.67115 9.5 5.56054C9.5 6.44992 9.7939 7.18236 10.3817 7.75785L22.8855 20Z" fill="#62D0DF"/>
</svg>
