<svg width="36" height="34" viewBox="0 0 36 34" fill="none" xmlns="http://www.w3.org/2000/svg">
<path d="M30.375 7.4375H24.75V6.375C24.75 5.52962 24.3944 4.71887 23.7615 4.1211C23.1286 3.52333 22.2701 3.1875 21.375 3.1875H14.625C13.7299 3.1875 12.8714 3.52333 12.2385 4.1211C11.6056 4.71887 11.25 5.52962 11.25 6.375V7.4375H5.625C5.02826 7.4375 4.45597 7.66138 4.03401 8.0599C3.61205 8.45841 3.375 8.99891 3.375 9.5625V26.5625C3.375 27.1261 3.61205 27.6666 4.03401 28.0651C4.45597 28.4636 5.02826 28.6875 5.625 28.6875H30.375C30.9717 28.6875 31.544 28.4636 31.966 28.0651C32.3879 27.6666 32.625 27.1261 32.625 26.5625V9.5625C32.625 8.99891 32.3879 8.45841 31.966 8.0599C31.544 7.66138 30.9717 7.4375 30.375 7.4375ZM13.5 6.375C13.5 6.09321 13.6185 5.82296 13.8295 5.6237C14.0405 5.42444 14.3266 5.3125 14.625 5.3125H21.375C21.6734 5.3125 21.9595 5.42444 22.1705 5.6237C22.3815 5.82296 22.5 6.09321 22.5 6.375V7.4375H13.5V6.375ZM30.375 9.5625V15.0888C26.5778 17.0409 22.3233 18.0632 18 18.0625C13.6769 18.0632 9.42247 17.0414 5.625 15.0902V9.5625H30.375ZM30.375 26.5625H5.625V17.4834C9.47802 19.2634 13.7107 20.1883 18 20.1875C22.2893 20.1876 26.522 19.2623 30.375 17.4821V26.5625ZM14.625 14.875C14.625 14.5932 14.7435 14.323 14.9545 14.1237C15.1655 13.9244 15.4516 13.8125 15.75 13.8125H20.25C20.5484 13.8125 20.8345 13.9244 21.0455 14.1237C21.2565 14.323 21.375 14.5932 21.375 14.875C21.375 15.1568 21.2565 15.427 21.0455 15.6263C20.8345 15.8256 20.5484 15.9375 20.25 15.9375H15.75C15.4516 15.9375 15.1655 15.8256 14.9545 15.6263C14.7435 15.427 14.625 15.1568 14.625 14.875Z" fill="#F9B640"/>
</svg>
