<svg width="36" height="36" viewBox="0 0 36 36" fill="none" xmlns="http://www.w3.org/2000/svg">
<path d="M32.3902 19.8367C32.0223 19.5532 31.6005 19.3475 31.1506 19.2322C30.7007 19.1169 30.232 19.0943 29.7731 19.1659C32.4141 16.4997 33.75 13.8489 33.75 11.2501C33.75 7.52779 30.7561 4.50013 27.0759 4.50013C26.0994 4.494 25.1335 4.70168 24.2458 5.1086C23.3581 5.51552 22.5702 6.1118 21.9375 6.8556C21.3048 6.1118 20.5169 5.51552 19.6292 5.1086C18.7415 4.70168 17.7756 4.494 16.7991 4.50013C13.1189 4.50013 10.125 7.52779 10.125 11.2501C10.125 12.797 10.5806 14.3003 11.5397 15.8908C10.7542 16.0898 10.0374 16.498 9.46547 17.072L6.28453 20.2501H2.25C1.65326 20.2501 1.08097 20.4872 0.65901 20.9091C0.237053 21.3311 0 21.9034 0 22.5001L0 28.1251C0 28.7219 0.237053 29.2942 0.65901 29.7161C1.08097 30.1381 1.65326 30.3751 2.25 30.3751H16.875C16.967 30.3752 17.0586 30.3638 17.1478 30.3414L26.1478 28.0914C26.2052 28.0777 26.2612 28.0589 26.3152 28.0351L31.7812 25.7092L31.8431 25.6811C32.3685 25.4186 32.8183 25.0266 33.1503 24.5422C33.4823 24.0578 33.6855 23.4969 33.7408 22.9122C33.7961 22.3275 33.7016 21.7384 33.4663 21.2004C33.231 20.6623 32.8626 20.193 32.3958 19.8367H32.3902ZM16.7991 6.75013C17.6704 6.73738 18.5257 6.9848 19.2557 7.46075C19.9857 7.93671 20.5571 8.61957 20.8969 9.42201C20.9816 9.62834 21.1258 9.80483 21.3111 9.92903C21.4964 10.0532 21.7144 10.1195 21.9375 10.1195C22.1606 10.1195 22.3786 10.0532 22.5639 9.92903C22.7492 9.80483 22.8934 9.62834 22.9781 9.42201C23.3179 8.61957 23.8893 7.93671 24.6193 7.46075C25.3493 6.9848 26.2046 6.73738 27.0759 6.75013C29.4736 6.75013 31.5 8.81029 31.5 11.2501C31.5 13.9937 29.2795 17.0973 25.0791 20.2361L23.5195 20.5947C23.6564 20.0164 23.6606 19.4147 23.5319 18.8345C23.4031 18.2544 23.1448 17.7109 22.7761 17.2449C22.4074 16.7788 21.9381 16.4022 21.4032 16.1434C20.8683 15.8845 20.2817 15.7501 19.6875 15.7501H14.1581C12.9445 14.1133 12.375 12.6733 12.375 11.2501C12.375 8.81029 14.4014 6.75013 16.7991 6.75013ZM2.25 22.5001H5.625V28.1251H2.25V22.5001ZM30.8573 23.6547L25.5136 25.93L16.7344 28.1251H7.875V21.8406L11.0573 18.6597C11.2655 18.4498 11.5133 18.2835 11.7864 18.1702C12.0594 18.057 12.3522 17.9992 12.6478 18.0001H19.6875C20.1351 18.0001 20.5643 18.1779 20.8807 18.4944C21.1972 18.8109 21.375 19.2401 21.375 19.6876C21.375 20.1352 21.1972 20.5644 20.8807 20.8809C20.5643 21.1973 20.1351 21.3751 19.6875 21.3751H15.75C15.4516 21.3751 15.1655 21.4937 14.9545 21.7046C14.7435 21.9156 14.625 22.2018 14.625 22.5001C14.625 22.7985 14.7435 23.0846 14.9545 23.2956C15.1655 23.5066 15.4516 23.6251 15.75 23.6251H20.25C20.3347 23.6249 20.4191 23.6155 20.5017 23.597L29.9236 21.43L29.9672 21.4187C30.2548 21.3389 30.5618 21.3682 30.8291 21.5011C31.0964 21.634 31.3051 21.861 31.415 22.1385C31.525 22.416 31.5284 22.7244 31.4247 23.0043C31.321 23.2842 31.1174 23.5158 30.8531 23.6547H30.8573Z" fill="#F9B640"/>
</svg>
