<svg width="36" height="36" viewBox="0 0 36 36" fill="none" xmlns="http://www.w3.org/2000/svg">
<path d="M22.5001 5.625C22.5001 4.73499 22.2362 3.86496 21.7417 3.12494C21.2472 2.38491 20.5444 1.80814 19.7222 1.46754C18.8999 1.12695 17.9951 1.03783 17.1222 1.21147C16.2493 1.3851 15.4474 1.81369 14.8181 2.44302C14.1888 3.07236 13.7602 3.87418 13.5866 4.7471C13.4129 5.62001 13.502 6.52481 13.8426 7.34708C14.1832 8.16935 14.76 8.87215 15.5 9.36662C16.24 9.86108 17.1101 10.125 18.0001 10.125C19.1936 10.125 20.3382 9.6509 21.1821 8.80698C22.026 7.96307 22.5001 6.81848 22.5001 5.625ZM18.0001 7.875C17.5551 7.875 17.1201 7.74304 16.7501 7.49581C16.38 7.24858 16.0917 6.89717 15.9214 6.48604C15.7511 6.07491 15.7065 5.62251 15.7933 5.18605C15.8801 4.74959 16.0944 4.34868 16.4091 4.03401C16.7238 3.71934 17.1247 3.50505 17.5611 3.41824C17.9976 3.33142 18.45 3.37598 18.8611 3.54627C19.2723 3.71657 19.6237 4.00496 19.8709 4.37497C20.1181 4.74498 20.2501 5.17999 20.2501 5.625C20.2501 6.22174 20.013 6.79404 19.5911 7.21599C19.1691 7.63795 18.5968 7.875 18.0001 7.875ZM32.5548 12.3342C32.4267 11.7042 32.0826 11.1386 31.582 10.7353C31.0813 10.3319 30.4555 10.1161 29.8126 10.125H6.18759C5.54645 10.125 4.92455 10.344 4.42494 10.7458C3.92532 11.1476 3.57798 11.708 3.44046 12.3342C3.30294 12.9605 3.38351 13.6149 3.6688 14.189C3.9541 14.7632 4.427 15.2226 5.00915 15.4913H5.02743L12.1641 18.6342L9.21102 29.8448C8.90203 30.5255 8.87607 31.301 9.13887 32.0008C9.40167 32.7006 9.9317 33.2673 10.6124 33.5763C11.293 33.8853 12.0685 33.9113 12.7683 33.6485C13.4681 33.3857 14.0348 32.8557 14.3438 32.175L18.0001 25.8652L21.6563 32.175C21.9813 32.8266 22.5462 33.3269 23.2324 33.5705C23.9187 33.8141 24.6726 33.782 25.3356 33.4811C25.9987 33.1802 26.5192 32.6338 26.7877 31.9569C27.0561 31.2801 27.0516 30.5255 26.7751 29.8519L23.822 18.6413L30.9587 15.4983H30.977C31.5685 15.2387 32.0503 14.7799 32.3385 14.2018C32.6268 13.6237 32.7033 12.9629 32.5548 12.3342ZM30.0517 13.4452L22.0459 16.9692C21.8008 17.0772 21.6023 17.2691 21.486 17.5104C21.3697 17.7517 21.3434 18.0265 21.4116 18.2855L24.6277 30.5156C24.6441 30.5811 24.6672 30.6447 24.6966 30.7055C24.7438 30.8064 24.76 30.9191 24.7431 31.0292C24.7262 31.1393 24.6769 31.2419 24.6016 31.324C24.5263 31.4061 24.4283 31.464 24.32 31.4903C24.2118 31.5166 24.0981 31.5102 23.9935 31.4719C23.8537 31.4206 23.7399 31.3159 23.6771 31.1808C23.6629 31.1504 23.6469 31.1208 23.6293 31.0922L18.9732 23.0625C18.8743 22.892 18.7324 22.7505 18.5616 22.6521C18.3908 22.5538 18.1972 22.502 18.0001 22.502C17.803 22.502 17.6094 22.5538 17.4386 22.6521C17.2678 22.7505 17.1259 22.892 17.027 23.0625L12.3751 31.0852C12.3575 31.1138 12.3415 31.1433 12.3273 31.1738C12.2645 31.3089 12.1507 31.4135 12.0109 31.4648C11.9063 31.5032 11.7926 31.5096 11.6844 31.4833C11.5761 31.457 11.4781 31.3991 11.4028 31.317C11.3275 31.2349 11.2782 31.1323 11.2613 31.0221C11.2444 30.912 11.2606 30.7994 11.3077 30.6984C11.3372 30.6377 11.3603 30.5741 11.3767 30.5086L14.5885 18.2813C14.6568 18.0223 14.6304 17.7474 14.5142 17.5062C14.3979 17.2649 14.1994 17.073 13.9543 16.965L5.94852 13.4452C5.83361 13.3903 5.74069 13.2981 5.68498 13.1836C5.62926 13.0691 5.61404 12.9391 5.6418 12.8149C5.66956 12.6906 5.73866 12.5794 5.8378 12.4995C5.93694 12.4196 6.06026 12.3757 6.18759 12.375H29.8126C29.9403 12.3748 30.0642 12.418 30.1641 12.4976C30.264 12.5771 30.3338 12.6883 30.3621 12.8128C30.3904 12.9373 30.3755 13.0678 30.3199 13.1827C30.2642 13.2976 30.1711 13.3902 30.0559 13.4452H30.0517Z" fill="#F9B640"/>
</svg>
