<svg width="60" height="60" viewBox="0 0 60 60" fill="none" xmlns="http://www.w3.org/2000/svg">
<path d="M52.118 37.1391L41.0766 32.1914L41.0461 32.1774C40.4729 31.9322 39.8476 31.8338 39.2268 31.8911C38.606 31.9484 38.0093 32.1596 37.4906 32.5055C37.4296 32.5458 37.3709 32.5896 37.3149 32.6367L31.6102 37.5C27.9961 35.7445 24.2649 32.0414 22.5094 28.4742L27.3797 22.6828C27.4266 22.6242 27.4711 22.5656 27.5133 22.5024C27.8518 21.9851 28.0572 21.3922 28.1112 20.7764C28.1651 20.1605 28.066 19.5409 27.8227 18.9727V18.9445L22.861 7.88439C22.5393 7.14204 21.9861 6.52364 21.2841 6.12151C20.582 5.71938 19.7687 5.55508 18.9656 5.65314C15.7898 6.07105 12.8747 7.63072 10.7647 10.0409C8.65476 12.451 7.49428 15.5468 7.50002 18.75C7.50002 37.3594 22.6406 52.5 41.25 52.5C44.4532 52.5058 47.549 51.3453 49.9592 49.2353C52.3693 47.1254 53.929 44.2102 54.3469 41.0344C54.4451 40.2316 54.2812 39.4185 53.8795 38.7165C53.4778 38.0145 52.8599 37.4612 52.118 37.1391ZM41.25 48.75C33.2962 48.7413 25.6706 45.5778 20.0464 39.9536C14.4222 34.3294 11.2587 26.7038 11.25 18.75C11.2412 16.4613 12.0658 14.2477 13.5697 12.5225C15.0737 10.7972 17.1542 9.67845 19.4227 9.37501C19.4218 9.38437 19.4218 9.39379 19.4227 9.40314L24.3446 20.4188L19.5 26.2172C19.4508 26.2738 19.4062 26.3341 19.3664 26.3977C19.0137 26.9389 18.8068 27.562 18.7658 28.2067C18.7247 28.8514 18.8509 29.4958 19.1321 30.0774C21.2555 34.4203 25.6313 38.7633 30.0211 40.8844C30.607 41.1629 31.2551 41.2848 31.9021 41.2379C32.5491 41.1911 33.1729 40.9772 33.7125 40.6172C33.7727 40.5767 33.8306 40.5328 33.886 40.486L39.5836 35.625L50.5992 40.5586C50.5992 40.5586 50.618 40.5586 50.625 40.5586C50.3253 42.8303 49.2082 44.915 47.4826 46.4227C45.7571 47.9304 43.5414 48.7577 41.25 48.75Z" fill="#62D0DF"/>
</svg>
