<svg width="166" height="24" viewBox="0 0 166 24" fill="none" xmlns="http://www.w3.org/2000/svg">
<path d="M14.504 13.608C14.504 14.568 14.256 15.376 13.76 16.032C13.264 16.672 12.592 17.16 11.744 17.496C10.912 17.832 10 18 9.008 18H0.776V0.959999H9.896C10.696 0.959999 11.384 1.176 11.96 1.608C12.552 2.024 13 2.568 13.304 3.24C13.624 3.896 13.784 4.584 13.784 5.304C13.784 6.12 13.576 6.896 13.16 7.632C12.744 8.368 12.136 8.912 11.336 9.264C12.312 9.552 13.08 10.072 13.64 10.824C14.216 11.576 14.504 12.504 14.504 13.608ZM11.168 12.984C11.168 12.552 11.08 12.168 10.904 11.832C10.728 11.48 10.488 11.208 10.184 11.016C9.896 10.808 9.56 10.704 9.176 10.704H4.088V15.192H9.008C9.408 15.192 9.768 15.096 10.088 14.904C10.424 14.696 10.688 14.424 10.88 14.088C11.072 13.752 11.168 13.384 11.168 12.984ZM4.088 3.792V8.088H8.504C8.872 8.088 9.208 8 9.512 7.824C9.816 7.648 10.056 7.4 10.232 7.08C10.424 6.76 10.52 6.376 10.52 5.928C10.52 5.496 10.432 5.12 10.256 4.8C10.096 4.48 9.872 4.232 9.584 4.056C9.312 3.88 9 3.792 8.648 3.792H4.088Z" fill="#DF3C4D"/>
<path d="M21.7685 18.24C20.7605 18.24 19.8485 18.072 19.0325 17.736C18.2165 17.384 17.5205 16.912 16.9445 16.32C16.3685 15.712 15.9205 15.024 15.6005 14.256C15.2965 13.472 15.1445 12.648 15.1445 11.784C15.1445 10.584 15.4085 9.488 15.9365 8.496C16.4805 7.504 17.2485 6.712 18.2405 6.12C19.2485 5.512 20.4325 5.208 21.7925 5.208C23.1685 5.208 24.3445 5.512 25.3205 6.12C26.2965 6.712 27.0405 7.504 27.5525 8.496C28.0805 9.472 28.3445 10.528 28.3445 11.664C28.3445 11.856 28.3365 12.056 28.3205 12.264C28.3045 12.456 28.2885 12.616 28.2725 12.744H18.5525C18.6165 13.384 18.8005 13.944 19.1045 14.424C19.4245 14.904 19.8245 15.272 20.3045 15.528C20.8005 15.768 21.3285 15.888 21.8885 15.888C22.5285 15.888 23.1285 15.736 23.6885 15.432C24.2645 15.112 24.6565 14.696 24.8645 14.184L27.6245 14.952C27.3205 15.592 26.8805 16.16 26.3045 16.656C25.7445 17.152 25.0805 17.544 24.3125 17.832C23.5445 18.104 22.6965 18.24 21.7685 18.24ZM18.4805 10.704H25.0565C24.9925 10.064 24.8085 9.512 24.5045 9.048C24.2165 8.568 23.8325 8.2 23.3525 7.944C22.8725 7.672 22.3365 7.536 21.7445 7.536C21.1685 7.536 20.6405 7.672 20.1605 7.944C19.6965 8.2 19.3125 8.568 19.0085 9.048C18.7205 9.512 18.5445 10.064 18.4805 10.704ZM35.3197 18.24C34.2957 18.24 33.3757 18.072 32.5597 17.736C31.7437 17.384 31.0477 16.904 30.4717 16.296C29.8957 15.672 29.4477 14.968 29.1277 14.184C28.8237 13.4 28.6717 12.576 28.6717 11.712C28.6717 10.528 28.9357 9.448 29.4637 8.472C30.0077 7.48 30.7757 6.688 31.7677 6.096C32.7597 5.504 33.9357 5.208 35.2957 5.208C36.6557 5.208 37.8237 5.504 38.7997 6.096C39.7757 6.688 40.5037 7.464 40.9837 8.424L37.8397 9.384C37.5677 8.92 37.2077 8.568 36.7597 8.328C36.3117 8.072 35.8157 7.944 35.2717 7.944C34.6637 7.944 34.1037 8.104 33.5917 8.424C33.0957 8.728 32.7037 9.168 32.4157 9.744C32.1277 10.304 31.9837 10.96 31.9837 11.712C31.9837 12.448 32.1277 13.104 32.4157 13.68C32.7197 14.24 33.1197 14.688 33.6157 15.024C34.1117 15.344 34.6637 15.504 35.2717 15.504C35.6557 15.504 36.0157 15.44 36.3517 15.312C36.7037 15.184 37.0157 15.008 37.2877 14.784C37.5597 14.56 37.7597 14.304 37.8877 14.016L41.0317 14.976C40.7437 15.6 40.3197 16.16 39.7597 16.656C39.2157 17.152 38.5677 17.544 37.8157 17.832C37.0797 18.104 36.2477 18.24 35.3197 18.24ZM42.1706 18V5.424H45.3866V9.384H48.2426C49.7466 9.384 50.8986 9.768 51.6986 10.536C52.4986 11.304 52.8986 12.32 52.8986 13.584C52.8986 14.432 52.7306 15.192 52.3946 15.864C52.0586 16.536 51.5626 17.064 50.9066 17.448C50.2506 17.816 49.4346 18 48.4586 18H42.1706ZM45.3866 15.552H47.9546C48.3866 15.552 48.7386 15.464 49.0106 15.288C49.2986 15.112 49.5066 14.88 49.6346 14.592C49.7786 14.304 49.8506 13.976 49.8506 13.608C49.8506 13.256 49.7866 12.944 49.6586 12.672C49.5306 12.384 49.3226 12.16 49.0346 12C48.7626 11.824 48.3946 11.736 47.9306 11.736H45.3866V15.552ZM78.9318 18V5.448H82.1478V13.704L87.7878 5.424H90.7158V18H87.4998V9.936L81.9318 18H78.9318ZM100.347 18.24C99.3706 18.24 98.5066 18.024 97.7546 17.592C97.0186 17.144 96.4426 16.544 96.0266 15.792V23.112H92.8106V5.424H95.6186V7.584C96.0986 6.848 96.7066 6.272 97.4426 5.856C98.1786 5.424 99.0186 5.208 99.9626 5.208C100.811 5.208 101.587 5.376 102.291 5.712C103.011 6.048 103.635 6.52 104.163 7.128C104.691 7.72 105.099 8.408 105.387 9.192C105.691 9.96 105.843 10.792 105.843 11.688C105.843 12.904 105.603 14.008 105.123 15C104.659 15.992 104.011 16.784 103.179 17.376C102.363 17.952 101.419 18.24 100.347 18.24ZM99.2666 15.504C99.7626 15.504 100.211 15.4 100.611 15.192C101.011 14.984 101.355 14.704 101.643 14.352C101.947 13.984 102.171 13.576 102.315 13.128C102.475 12.664 102.555 12.184 102.555 11.688C102.555 11.16 102.467 10.672 102.291 10.224C102.131 9.776 101.891 9.384 101.571 9.048C101.251 8.696 100.875 8.424 100.443 8.232C100.027 8.04 99.5706 7.944 99.0746 7.944C98.7706 7.944 98.4586 8 98.1386 8.112C97.8346 8.208 97.5386 8.352 97.2506 8.544C96.9626 8.736 96.7066 8.96 96.4826 9.216C96.2746 9.472 96.1226 9.752 96.0266 10.056V13.008C96.2186 13.472 96.4746 13.896 96.7946 14.28C97.1306 14.664 97.5146 14.968 97.9466 15.192C98.3786 15.4 98.8186 15.504 99.2666 15.504ZM124.649 21.048V15.192H124.985C125.305 15.192 125.601 15.104 125.873 14.928C126.161 14.752 126.409 14.456 126.617 14.04C126.841 13.608 127.017 13.016 127.145 12.264C127.289 11.512 127.385 10.552 127.433 9.384L127.577 5.424H137.009V15.192H138.761V21.048H135.953V18H127.481V21.048H124.649ZM129.041 15.192H133.793V8.136H130.385L130.313 9.696C130.265 10.752 130.185 11.648 130.073 12.384C129.977 13.104 129.841 13.696 129.665 14.16C129.505 14.608 129.297 14.952 129.041 15.192ZM140.005 18V5.448H143.221V13.704L148.861 5.424H151.789V18H148.573V9.936L143.005 18H140.005ZM153.884 18V5.424H157.1V10.224H162.188V5.424H165.404V18H162.188V12.912H157.1V18H153.884Z" fill="#22356F"/>
<path d="M73.2142 18V6.816L68.8462 15.144H66.9982L62.6302 6.816V18H59.3182V0.959999H62.8702L67.9102 10.656L72.9982 0.959999H76.5262V18H73.2142Z" fill="#62DF76"/>
<path d="M124.251 15.096V18H112.419V0.959999H124.035V3.864H115.731V7.968H122.907V10.656H115.731V15.096H124.251Z" fill="#2F71BD"/>
</svg>
