<svg width="34" height="34" viewBox="0 0 34 34" fill="none" xmlns="http://www.w3.org/2000/svg">
<path fill-rule="evenodd" clip-rule="evenodd" d="M11.7046 14.2231C12.0829 13.8768 12.6963 13.8768 13.0745 14.2231C13.2158 14.3524 13.3541 14.4789 13.4896 14.6027C16.0782 16.9691 17.6111 18.3704 18.3874 20.3604C18.7959 21.4074 18.985 22.5795 19.078 24.0779C19.1704 25.5663 19.1704 27.4381 19.1704 29.8964V29.9256C19.1704 30.4154 18.7367 30.8124 18.2017 30.8124C17.6667 30.8124 17.233 30.4154 17.233 29.9256C17.233 27.4323 17.2326 25.6107 17.1438 24.1785C17.0551 22.7506 16.881 21.7722 16.5629 20.9569C15.9364 19.3509 14.7129 18.231 11.837 15.5984C11.7932 15.5584 11.7491 15.518 11.7046 15.4772C11.3263 15.1309 11.3263 14.5694 11.7046 14.2231Z" fill="#F9B640"/>
<path fill-rule="evenodd" clip-rule="evenodd" d="M23.8989 9.99659C24.152 10.428 23.9752 10.9657 23.5039 11.1975C22.6897 11.5979 21.6226 12.3647 20.7422 14.9766C19.8435 17.6427 19.1708 22.1496 19.1708 29.9257C19.1708 30.4154 18.7371 30.8125 18.2021 30.8125C17.6671 30.8125 17.2334 30.4154 17.2334 29.9257C17.2334 22.0942 17.906 17.3757 18.8909 14.4537C19.8941 11.4775 21.2487 10.2933 22.5871 9.63506C23.0584 9.40328 23.6457 9.56515 23.8989 9.99659Z" fill="#F9B640"/>
<path fill-rule="evenodd" clip-rule="evenodd" d="M20.8655 7.30828C18.7528 8.94005 17.5418 11.0465 17.2094 12.3863C17.0909 12.8639 16.5719 13.1631 16.0502 13.0546C15.5285 12.9462 15.2017 12.4711 15.3202 11.9935C15.751 10.2572 17.1995 7.81933 19.6162 5.95272C22.0656 4.06082 25.5377 2.73627 29.9671 3.33136C30.4964 3.40247 30.8625 3.85294 30.7848 4.33752C30.7071 4.82209 30.2151 5.15726 29.6857 5.08615C25.8725 4.57384 22.9454 5.70179 20.8655 7.30828Z" fill="#F9B640"/>
<path fill-rule="evenodd" clip-rule="evenodd" d="M29.5903 3.33158C30.1195 3.25941 30.6123 3.5936 30.6912 4.07801C31.0065 6.0154 30.7124 8.58833 29.7336 10.873C28.7575 13.1513 27.023 15.3092 24.3205 16.1348C23.813 16.2898 23.2643 16.0389 23.095 15.5743C22.9257 15.1097 23.1998 14.6074 23.7073 14.4524C25.6496 13.8591 27.0634 12.2481 27.93 10.2255C28.7938 8.20923 29.0369 5.94914 28.7749 4.33936C28.6961 3.85495 29.0612 3.40375 29.5903 3.33158Z" fill="#F9B640"/>
<path fill-rule="evenodd" clip-rule="evenodd" d="M12.3732 9.35896C13.7123 9.96796 14.5145 11.1341 15.402 12.5217C15.6771 12.9519 16.2825 13.1288 16.7542 12.917C17.2258 12.7051 17.3852 12.1847 17.1101 11.7546L17.101 11.7405C16.264 10.4319 15.1801 8.73719 13.1826 7.82879C11.1232 6.89222 8.38938 6.90078 4.5019 8.28923C4.00931 8.46516 3.80098 8.96933 4.03657 9.41534C4.27216 9.86134 4.86246 10.0803 5.35504 9.90435C9.02177 8.59474 11.0888 8.77488 12.3732 9.35896Z" fill="#F9B640"/>
<path fill-rule="evenodd" clip-rule="evenodd" d="M4.7088 8.15897C4.17236 8.21507 3.82008 8.64655 3.92195 9.1227C3.96132 9.30668 4.00376 9.514 4.05021 9.74093C4.36208 11.2644 4.8548 13.6715 5.8112 15.8286C6.88282 18.2457 8.75099 20.8185 12.0748 21.0365C12.6208 21.0723 13.0654 20.7137 13.0677 20.2356C13.0701 19.7575 12.6294 19.3409 12.0834 19.3051C10.0955 19.1747 8.6842 17.638 7.64756 15.2998C6.77192 13.3248 6.31703 11.1122 6.00079 9.574C5.95248 9.33903 5.90741 9.11979 5.86456 8.91954C5.76269 8.44339 5.24524 8.10287 4.7088 8.15897Z" fill="#F9B640"/>
</svg>
