<svg width="34" height="34" viewBox="0 0 34 34" fill="none" xmlns="http://www.w3.org/2000/svg">
<path d="M33.7741 14.3318L30.3847 7.55035C30.2599 7.30075 30.0871 7.07819 29.8762 6.89539C29.6653 6.71258 29.4205 6.5731 29.1557 6.48492C28.8909 6.39674 28.6113 6.36158 28.3329 6.38145C28.0546 6.40133 27.7828 6.47584 27.5332 6.60074L24.2302 8.2516L17.2721 6.41082C17.0936 6.36436 16.9062 6.36436 16.7276 6.41082L9.76957 8.2516L6.46652 6.60074C6.21694 6.47584 5.9452 6.40133 5.66682 6.38145C5.38844 6.36158 5.10888 6.39674 4.84409 6.48492C4.57929 6.5731 4.33447 6.71258 4.12359 6.89539C3.9127 7.07819 3.7399 7.30075 3.61504 7.55035L0.225662 14.3304C0.10076 14.58 0.0262445 14.8517 0.0063711 15.1301C-0.0135023 15.4085 0.0216556 15.6881 0.109837 15.9529C0.198018 16.2177 0.337496 16.4625 0.520305 16.6734C0.703113 16.8842 0.925672 17.0571 1.17527 17.1819L4.76121 18.9762L12.131 24.2396C12.2396 24.3168 12.3616 24.3731 12.4909 24.4056L20.9909 26.5306C21.1689 26.5752 21.3554 26.573 21.5323 26.5241C21.7092 26.4752 21.8704 26.3814 22.0003 26.2517L29.3143 18.9364L32.8232 17.1819C33.3269 16.9297 33.7099 16.4879 33.888 15.9534C34.066 15.419 34.0246 14.8357 33.7728 14.3318H33.7741ZM26.484 18.7637L21.9139 15.1034C21.7092 14.9394 21.4511 14.857 21.1892 14.872C20.9273 14.8869 20.6802 14.9982 20.4955 15.1844C18.1301 17.5671 15.4938 17.2656 13.8124 16.2031L19.5552 10.625H23.78L27.3938 17.8513L26.484 18.7637ZM5.51558 8.49996L8.23426 9.85731L4.83824 16.6374L2.12488 15.2814L5.51558 8.49996ZM20.9218 24.3219L13.2041 22.3935L6.66972 17.7264L10.3885 10.2889L16.9999 8.53715L18.3014 8.88113L12.3249 14.6824L12.3143 14.6943C12.0893 14.9193 11.9177 15.1919 11.8122 15.4921C11.7066 15.7922 11.6698 16.1123 11.7045 16.4285C11.7392 16.7448 11.8444 17.0492 12.0125 17.3194C12.1806 17.5896 12.4071 17.8185 12.6755 17.9894C15.4061 19.7332 18.7012 19.4504 21.2964 17.3254L24.9686 20.2751L20.9218 24.3219ZM29.1562 16.6361L25.7668 9.86262L28.4842 8.49996L31.8749 15.2814L29.1562 16.6361ZM17.5019 28.9438C17.4445 29.1734 17.3121 29.3773 17.1256 29.5231C16.9391 29.6689 16.7093 29.7483 16.4726 29.7486C16.3853 29.7485 16.2984 29.7378 16.2136 29.7168L10.6793 28.3329C10.5499 28.3009 10.4277 28.2446 10.3194 28.1668L6.8198 25.6673C6.60462 25.4984 6.4629 25.2529 6.42416 24.9821C6.38541 24.7113 6.45263 24.4359 6.61181 24.2134C6.77099 23.9909 7.00986 23.8384 7.27868 23.7876C7.54751 23.7368 7.82557 23.7917 8.05496 23.9407L11.3899 26.3234L16.7343 27.6568C17.0076 27.7252 17.2425 27.8993 17.3875 28.1409C17.5324 28.3825 17.5755 28.6718 17.5072 28.9451L17.5019 28.9438Z" fill="#F9B640"/>
</svg>
