<svg width="36" height="41" viewBox="0 0 36 41" fill="none" xmlns="http://www.w3.org/2000/svg">
<path d="M35 34L30.17 29.17C29.42 28.42 28.4 28 27.34 28H26L24 29H20C18.9 29 18 29.9 18 31V33" stroke="#F9B640" stroke-width="2" stroke-linecap="round" stroke-linejoin="round"/>
<path d="M29 39.9999L27 37.9999H15L6 28.9999L7.57 28.6099C9.1 28.2299 10.73 28.5799 11.96 29.5699L16 32.9999H24" stroke="#F9B640" stroke-width="2" stroke-linecap="round" stroke-linejoin="round"/>
<path d="M1 7L5.83 11.83C6.58 12.58 7.6 13 8.66 13H10L12 12H16C17.1 12 18 11.1 18 10V8" stroke="#F9B640" stroke-width="2" stroke-linecap="round" stroke-linejoin="round"/>
<path d="M7 1L9 3H21L30 12L28.43 12.39C26.9 12.77 25.27 12.42 24.04 11.43L20 8H12" stroke="#F9B640" stroke-width="2" stroke-linecap="round" stroke-linejoin="round"/>
<path d="M18 16.7199C18.59 15.5899 19.84 14.8499 21.23 15.0299C22.83 15.2299 24 16.6699 24 18.2799C24 20.0199 23.31 21.6899 22.08 22.9199L18 26.9999L13.92 22.9199C12.69 21.6899 12 20.0199 12 18.2799C12 16.5799 13.3 15.0999 15 15.0099C16.3 14.9399 17.45 15.6499 18 16.7299V16.7199Z" stroke="#F9B640" stroke-width="2" stroke-linecap="round" stroke-linejoin="round"/>
</svg>
