<svg width="36" height="36" viewBox="0 0 36 36" fill="none" xmlns="http://www.w3.org/2000/svg">
<path d="M18 5.87377C19.66 2.66377 23.2 0.573773 27.16 1.07377C31.7 1.64377 35 5.71377 35 10.2938C35 15.2338 33.04 19.9638 29.55 23.4538L18 35.0038L6.45 23.4538C2.96 19.9638 1 15.2338 1 10.2938C1 5.46377 4.68 1.28377 9.5 1.01377C13.19 0.813773 16.44 2.84377 18 5.87377Z" stroke="#F9B640" stroke-width="2" stroke-linecap="round" stroke-linejoin="round"/>
<path d="M2 16.0039H10.17C10.7 16.0039 11.21 16.2139 11.58 16.5939L13.99 19.0039C13.99 20.1039 14.89 21.0039 15.99 21.0039C17.09 21.0039 17.99 21.9039 17.99 23.0039V24.0039L15.99 26.0039H8.99" stroke="#F9B640" stroke-width="2" stroke-linecap="round" stroke-linejoin="round"/>
<path d="M32 5.00391L29 8.00391V10.0039H23L19.59 13.4139C19.21 13.7939 19 14.2939 19 14.8239V14.9939C19 16.0939 19.9 16.9939 21 16.9939H23L26 19.9939V22.9939L28 24.9939" stroke="#F9B640" stroke-width="2" stroke-linecap="round" stroke-linejoin="round"/>
<path d="M5 4.00391L7 6.00391V8.00391C7 9.10391 6.1 10.0039 5 10.0039H1" stroke="#F9B640" stroke-width="2" stroke-linecap="round" stroke-linejoin="round"/>
</svg>
