<svg width="34" height="34" viewBox="0 0 34 34" fill="none" xmlns="http://www.w3.org/2000/svg">
<path d="M33.4365 11.8122L17.499 3.31217C17.3453 3.23031 17.1738 3.1875 16.9997 3.1875C16.8255 3.1875 16.654 3.23031 16.5003 3.31217L0.562793 11.8122C0.392799 11.9028 0.250631 12.0379 0.151499 12.203C0.0523671 12.3682 0 12.5572 0 12.7498C0 12.9425 0.0523671 13.1315 0.151499 13.2966C0.250631 13.4618 0.392799 13.5969 0.562793 13.6875L4.24967 15.6544V22.0852C4.24856 22.6071 4.44064 23.111 4.78889 23.4997C6.52873 25.4374 10.4268 28.6873 16.9997 28.6873C19.1791 28.7053 21.3421 28.3106 23.3747 27.5239V31.8748C23.3747 32.1566 23.4866 32.4269 23.6859 32.6261C23.8851 32.8254 24.1554 32.9373 24.4372 32.9373C24.719 32.9373 24.9892 32.8254 25.1885 32.6261C25.3877 32.4269 25.4997 32.1566 25.4997 31.8748V26.4972C26.8852 25.6974 28.1372 24.686 29.2104 23.4997C29.5587 23.111 29.7508 22.6071 29.7497 22.0852V15.6544L33.4365 13.6875C33.6065 13.5969 33.7487 13.4618 33.8478 13.2966C33.947 13.1315 33.9993 12.9425 33.9993 12.7498C33.9993 12.5572 33.947 12.3682 33.8478 12.203C33.7487 12.0379 33.6065 11.9028 33.4365 11.8122ZM16.9997 26.5623C11.2529 26.5623 7.87279 23.7547 6.37467 22.0852V16.7873L16.5003 22.1875C16.654 22.2693 16.8255 22.3121 16.9997 22.3121C17.1738 22.3121 17.3453 22.2693 17.499 22.1875L23.3747 19.0544V25.209C21.7012 25.9899 19.5922 26.5623 16.9997 26.5623ZM27.6247 22.0799C26.9878 22.7867 26.2752 23.4213 25.4997 23.9725V17.9202L27.6247 16.7873V22.0799ZM24.9684 15.7965L24.9392 15.7793L17.5017 11.8122C17.2536 11.6854 16.9656 11.6612 16.6997 11.7448C16.4339 11.8284 16.2116 12.013 16.0806 12.2589C15.9496 12.5049 15.9205 12.7924 15.9995 13.0596C16.0785 13.3268 16.2593 13.5523 16.5029 13.6875L22.7106 16.9998L16.9997 20.0452L3.31998 12.7498L16.9997 5.45443L30.6794 12.7498L24.9684 15.7965Z" fill="#F9B640"/>
</svg>
